<svg xmlns="http://www.w3.org/2000/svg" viewBox="0 0 1977.13 917.26"><defs><style>.cls-1{fill:#dc3645;}.cls-2{fill:#fff;}.cls-3{fill:none;}</style></defs><g id="Layer_2" data-name="Layer 2"><g id="Layer_5" data-name="Layer 5"><path class="cls-1" d="M1156,207.75q-.12,7.8-.16,15.58c.08,16.23.06,32.46-.16,48.69q0,8.55-.14,17.1c0,2.06-.13,4.08-.31,6.06,0,.46,0,.91,0,1.37-.44,16.64-7.68,30.32-25.34,36.5-5.12,1.76-10.15,3.26-15.8,3.23q-62.92-.33-125.85-.52t-125.84-.35c-5.65,0-10.68-1.55-15.78-3.34-17.62-6.3-24.76-20-25.09-36.67,0-.46,0-.92,0-1.38q-.27-3-.28-6,0-8.55,0-17.1c-.11-16.23,0-32.47.18-48.7,0-5.19,0-10.38-.06-15.57a100.37,100.37,0,0,1,.51-11,42.34,42.34,0,0,1,1.11-7.74,89,89,0,0,1,3.18-12.28c8.6-12.41,20.39-18.6,35-19.69,6.82-2.35,9.06-6.71,8.79-14.26-.31-8.6,0-17.21,0-28.45,11.38,11,21.81,19.74,30.55,29.86,6,6.94,12.53,11.42,20.4,12.91l8.91,0h5.14c7.15-.1,30.28,0,54,.08s46.81.14,53.95.29l5.15,0,8.91,0c7.88-1.44,14.45-5.87,20.49-12.77,8.81-10.06,19.29-18.74,30.75-29.65,0,11.24.2,19.86-.17,28.45-.32,7.55,1.88,11.92,8.68,14.33,14.58,1.19,26.32,7.45,34.84,19.92a89.66,89.66,0,0,1,3.1,12.3,44.39,44.39,0,0,1,1.06,7.75A100.54,100.54,0,0,1,1156,207.75Z"/><path class="cls-2" d="M896.7,239.9c-10.63-.66-17.93-5.19-18.61-16.5-.72-12,6.38-18.86,17.63-19.29,11.41-.44,19.26,6.78,19.19,18.06C914.86,232.52,908,238.78,896.7,239.9Z"/><path class="cls-2" d="M1081.24,239.37c-11.6-.72-18.87-7-18.91-18.21,0-10.55,7.57-17.5,18.06-17.6,11.17-.12,18.86,6.16,18.79,18.2C1099.11,232.94,1092.55,238.28,1081.24,239.37Z"/><path class="cls-2" d="M990.27,268.66c-6.85-.32-10.91-4-11.16-10.31-.27-6.87,4.26-11.33,11.17-11.32s11.41,4.51,11.11,11.38C1001.12,264.68,997,268.37,990.27,268.66Z"/><rect class="cls-2" x="864.13" y="266.31" width="64.34" height="13.9" rx="6.95" transform="translate(0.95 -3.09) rotate(0.2)"/><rect class="cls-2" x="864.08" y="281.68" width="64.34" height="13.9" rx="6.95" transform="translate(1 -3.09) rotate(0.2)"/><rect class="cls-2" x="864.03" y="297.06" width="64.34" height="13.9" rx="6.95" transform="translate(1.05 -3.09) rotate(0.2)"/><rect class="cls-2" x="1048.35" y="281.15" width="64.34" height="13.9" rx="6.95" transform="translate(1 -3.73) rotate(0.2)"/><rect class="cls-2" x="1048.3" y="296.52" width="64.34" height="13.9" rx="6.95" transform="translate(1.05 -3.73) rotate(0.2)"/><rect class="cls-2" x="1047.5" y="266.12" width="64.34" height="13.9" rx="6.95" transform="translate(0.95 -3.72) rotate(0.2)"/><path class="cls-1" d="M1108.94,722.32c0,3.73,0,7.47,0,11.21a74.23,74.23,0,0,1-.37,7.92,30.63,30.63,0,0,1-.8,5.58,65.28,65.28,0,0,1-2.29,8.84c-6.19,8.93-14.68,13.38-25.17,14.16-4.91,1.7-6.52,4.84-6.33,10.27.22,6.19,0,12.39,0,20.48-8.19-7.91-15.69-14.21-22-21.49-4.32-5-9-8.22-14.69-9.29l-6.42,0h-3.7c-5.14.08-21.79,0-38.83-.06s-33.7-.09-38.84-.21h-3.7l-6.41,0c-5.68,1-10.41,4.22-14.76,9.19-6.33,7.24-13.89,13.49-22.13,21.34,0-8.09-.14-14.29.12-20.48.23-5.43-1.36-8.58-6.25-10.31-10.49-.86-18.95-5.37-25.08-14.34a66.4,66.4,0,0,1-2.23-8.86,31.52,31.52,0,0,1-.76-5.58,74.27,74.27,0,0,1-.31-7.92q.09-5.61.12-11.22-.09-17.52.11-35.05,0-6.15.1-12.3c0-1.48.1-2.94.23-4.37l0-1c.32-12,5.52-21.82,18.24-26.27a34,34,0,0,1,11.37-2.32q45.3.23,90.59.37t90.59.25a33.92,33.92,0,0,1,11.36,2.41c12.69,4.53,17.82,14.41,18.06,26.39,0,.33,0,.66,0,1,.12,1.43.19,2.89.2,4.37q0,6.15,0,12.3C1109.15,699,1109.08,710.63,1108.94,722.32Z"/><path class="cls-2" d="M1054.71,709.56c7.65.47,12.9,3.73,13.39,11.88.51,8.6-4.59,13.57-12.69,13.88s-13.86-4.88-13.82-13C1041.63,714.87,1046.59,710.36,1054.71,709.56Z"/><path class="cls-2" d="M921.86,709.94c8.35.51,13.59,5,13.61,13.1,0,7.6-5.44,12.6-13,12.68-8,.08-13.57-4.44-13.52-13.11C909,714.57,913.72,710.72,921.86,709.94Z"/><path class="cls-2" d="M987.35,688.86c4.93.22,7.85,2.9,8,7.41.19,5-3.07,8.16-8,8.15s-8.22-3.24-8-8.19C979.53,691.72,982.48,689.06,987.35,688.86Z"/><rect class="cls-2" x="1031.83" y="680.54" width="46.32" height="10" rx="3.35" transform="translate(2107.61 1374.72) rotate(-179.8)"/><rect class="cls-2" x="1031.87" y="669.47" width="46.32" height="10" rx="3.35" transform="translate(2107.72 1352.59) rotate(-179.8)"/><rect class="cls-2" x="1031.91" y="658.41" width="46.32" height="10" rx="3.35" transform="translate(2107.83 1330.46) rotate(-179.8)"/><rect class="cls-2" x="899.18" y="680.92" width="46.32" height="10" rx="3.35" transform="translate(1842.3 1375.03) rotate(-179.8)"/><rect class="cls-2" x="899.22" y="669.86" width="46.32" height="10" rx="3.35" transform="translate(1842.42 1352.9) rotate(-179.8)"/><rect class="cls-2" x="899.26" y="658.79" width="46.32" height="10" rx="3.35" transform="translate(1842.53 1330.77) rotate(-179.8)"/><path class="cls-2" d="M1881.67,382.73H95.46A87.45,87.45,0,0,0,8,470.19v42.9a87.45,87.45,0,0,0,87.46,87.46H1881.67a87.46,87.46,0,0,0,87.46-87.46v-42.9A87.46,87.46,0,0,0,1881.67,382.73Zm79.46,130.36a79.55,79.55,0,0,1-79.46,79.46H95.46A79.54,79.54,0,0,1,16,513.09v-42.9a79.54,79.54,0,0,1,79.46-79.46H1881.67a79.55,79.55,0,0,1,79.46,79.46Z"/><path class="cls-1" d="M1387.38,382.73H539.53q-.72,4-1.35,8h850.55Q1388.1,386.73,1387.38,382.73Zm0,0H564.65q-.72,4-1.35,8h825.43Q1388.1,386.73,1387.38,382.73Zm0,0H564.65q-.72,4-1.35,8h825.43Q1388.1,386.73,1387.38,382.73Zm494.29-8H95.46A95.56,95.56,0,0,0,0,470.19v42.9a95.56,95.56,0,0,0,95.46,95.46H1881.67a95.57,95.57,0,0,0,95.46-95.46v-42.9A95.57,95.57,0,0,0,1881.67,374.73Zm79.46,138.36a79.55,79.55,0,0,1-79.46,79.46H95.46A79.54,79.54,0,0,1,16,513.09v-42.9a79.54,79.54,0,0,1,79.46-79.46H1881.67a79.55,79.55,0,0,1,79.46,79.46ZM1387.38,382.73H564.65q-.72,4-1.35,8h825.43Q1388.1,386.73,1387.38,382.73Zm0,0H539.53q-.72,4-1.35,8h850.55Q1388.1,386.73,1387.38,382.73Zm0,0H539.53q-.72,4-1.35,8h850.55Q1388.1,386.73,1387.38,382.73Z"/><path class="cls-3" d="M509.8,390.73H95.46A79.54,79.54,0,0,0,16,470.19v42.9a79.54,79.54,0,0,0,79.46,79.46H524.67c-1.36-4.46-2.66,4.5-3.88,0H550c1.32,4.51,2.71-4.45,4.17,0H1881.67a79.55,79.55,0,0,0,79.46-79.46v-42.9a79.55,79.55,0,0,0-79.46-79.46H509.8Z"/><path class="cls-1" d="M257.82,440.82H214.31V559.16H185.05V440.82H142.12v-23.7h115.7Z"/><path class="cls-1" d="M343,529.89H291.68l-9.76,29.27H250.8l52.88-142H330.8l53.17,142H352.84Zm-43.41-23.7h35.51L317.24,453Z"/><path class="cls-1" d="M426.5,535.65h62.15v23.51H397.23v-142H426.5Z"/><path class="cls-1" d="M587.47,529.89H536.16l-9.76,29.27H495.28l52.88-142h27.12l53.17,142H597.33Zm-43.41-23.7h35.51L561.72,453Z"/><path class="cls-1" d="M686.2,502.19,671,518.58v40.58H641.71v-142H671v64.39l12.88-17.66,36.19-46.73h36l-50.44,63.12,51.9,78.92H722.69Z"/><path class="cls-1" d="M876.05,417.12v93.56q0,23.31-14.59,36.87t-39.85,13.56q-24.87,0-39.51-13.17t-14.93-36.19V417.12h29.27v93.75q0,13.95,6.68,20.34t18.49,6.39q24.67,0,25.07-26V417.12Z"/><path class="cls-1" d="M1007,440.82H963.46V559.16H934.19V440.82H891.27v-23.7H1007Z"/><path class="cls-1" d="M1139.16,559.16h-29.27l-57-93.46v93.46h-29.27v-142h29.27L1110,510.77V417.12h29.17Z"/><path class="cls-1" d="M1246.67,529.89h-51.32l-9.75,29.27h-31.12l52.87-142h27.13l53.16,142h-31.12Zm-43.41-23.7h35.51L1220.92,453Z"/><path class="cls-1" d="M1416.42,559.16h-29.27l-57-93.46v93.46h-29.27v-142h29.27l57.07,93.65V417.12h29.17Z"/><path class="cls-1" d="M1554.37,541.21q-7.9,9.46-22.34,14.68a93.56,93.56,0,0,1-32,5.22q-18.43,0-32.34-8.05a53.64,53.64,0,0,1-21.47-23.36q-7.56-15.32-7.75-36V484q0-21.27,7.17-36.83t20.68-23.8q13.52-8.25,31.66-8.24,25.26,0,39.51,12t16.88,35.08h-28.49q-2-12.19-8.63-17.86t-18.39-5.65q-14.92,0-22.73,11.21t-7.91,33.37v9.07q0,22.35,8.49,33.76t24.88,11.41q16.48,0,23.51-7V506.09h-26.63V484.53h55.9Z"/><path class="cls-1" d="M1658.27,529.89H1607l-9.75,29.27h-31.12l52.87-142h27.12l53.17,142h-31.12Zm-43.42-23.7h35.52L1632.51,453Z"/><path class="cls-1" d="M1828,559.16h-29.27l-57-93.46v93.46h-29.27v-142h29.27l57.07,93.65V417.12H1828Z"/><path class="cls-1" d="M1442.22,390.73h-28.37q-.63-4-1.35-8t-1.5-8C1371.85,177.3,1197.32,28,988.57,28S605.29,177.3,566.15,374.73q-.79,4-1.5,8t-1.35,8H534.92q.58-4,1.25-8t1.41-8a458.7,458.7,0,0,1,902,0q.75,4,1.41,8T1442.22,390.73Z"/><path class="cls-1" d="M1427.35,592.55c-.82,2.68-1.66,5.34-2.53,8s-1.76,5.34-2.68,8q-5,14.44-11,28.6a458.88,458.88,0,0,1-845.17,0q-6-14.16-11-28.6c-.92-2.66-1.81-5.32-2.68-8s-1.71-5.32-2.53-8h29.47c.88,2.68,1.78,5.35,2.72,8s1.89,5.35,2.88,8c61,163.75,219,280.71,403.71,280.71s342.7-117,403.71-280.71q1.48-4,2.88-8c.94-2.65,1.84-5.32,2.72-8Z"/></g></g></svg>