<svg xmlns="http://www.w3.org/2000/svg" viewBox="0 0 334.89 223.11"><defs><style>.cls-1{fill:#dc3645;}.cls-2{fill:#fff;}</style></defs><g id="Layer_2" data-name="Layer 2"><g id="Layer_5" data-name="Layer 5"><path class="cls-1" d="M334.88,94.58q-.12,7.8-.16,15.58c.08,16.23.06,32.46-.16,48.69q0,8.55-.14,17.1c0,2.06-.13,4.08-.31,6.06,0,.46,0,.91,0,1.37-.44,16.64-7.68,30.32-25.34,36.5-5.12,1.76-10.15,3.26-15.8,3.23q-62.93-.33-125.85-.52t-125.84-.35c-5.65,0-10.68-1.55-15.78-3.34C7.84,212.6.7,198.87.37,182.23c0-.46,0-.92,0-1.38q-.27-3-.28-6,0-8.55,0-17.1c-.11-16.23,0-32.47.18-48.7,0-5.19,0-10.38-.06-15.57a100.37,100.37,0,0,1,.51-11,42.34,42.34,0,0,1,1.11-7.74A89,89,0,0,1,5,62.4c8.6-12.41,20.39-18.6,35-19.69C46.76,40.36,49,36,48.73,28.45c-.31-8.6,0-17.21,0-28.45C60.13,11,70.56,19.74,79.3,29.86c6,6.94,12.53,11.42,20.4,12.91l8.91,0h5.14c7.15-.1,30.28,0,53.95.08s46.81.14,54,.29l5.15,0,8.91,0c7.88-1.44,14.45-5.87,20.49-12.77C265,20.41,275.49,11.73,287,.82c0,11.24.2,19.86-.17,28.45-.32,7.55,1.88,11.92,8.68,14.33,14.58,1.19,26.32,7.45,34.84,19.92a89.66,89.66,0,0,1,3.1,12.3,44.39,44.39,0,0,1,1.06,7.75A100.54,100.54,0,0,1,334.88,94.58Z"/><path class="cls-2" d="M75.57,126.73c-10.63-.66-17.92-5.19-18.6-16.5-.72-12,6.37-18.86,17.62-19.29C86,90.5,93.85,97.72,93.79,109,93.73,119.35,86.85,125.61,75.57,126.73Z"/><path class="cls-2" d="M260.12,126.2c-11.6-.72-18.87-7-18.91-18.21,0-10.55,7.57-17.5,18.06-17.6,11.17-.12,18.86,6.16,18.79,18.2C278,119.77,271.42,125.11,260.12,126.2Z"/><path class="cls-2" d="M169.15,155.49c-6.86-.32-10.92-4-11.16-10.31-.27-6.87,4.26-11.33,11.17-11.32s11.41,4.51,11.11,11.38C180,151.51,175.91,155.2,169.15,155.49Z"/><rect class="cls-2" x="43.01" y="153.14" width="64.34" height="13.9" rx="6.95" transform="translate(0.55 -0.26) rotate(0.2)"/><rect class="cls-2" x="42.96" y="168.51" width="64.34" height="13.9" rx="6.95" transform="translate(0.61 -0.26) rotate(0.2)"/><rect class="cls-2" x="42.9" y="183.89" width="64.34" height="13.9" rx="6.95" transform="translate(0.66 -0.26) rotate(0.2)"/><rect class="cls-2" x="227.23" y="167.98" width="64.34" height="13.9" rx="6.95" transform="translate(0.61 -0.89) rotate(0.2)"/><rect class="cls-2" x="227.18" y="183.35" width="64.34" height="13.9" rx="6.95" transform="translate(0.66 -0.89) rotate(0.2)"/><rect class="cls-2" x="226.38" y="152.95" width="64.34" height="13.9" rx="6.95" transform="translate(0.55 -0.89) rotate(0.2)"/></g></g></svg>