<svg xmlns="http://www.w3.org/2000/svg" viewBox="0 0 2793.24 1118.22"><defs><style>.cls-1{fill:#4d4d4e;}.cls-2{fill:#dc3645;}.cls-3{fill:#fff;}</style></defs><g id="Layer_2" data-name="Layer 2"><g id="Layer_5" data-name="Layer 5"><rect class="cls-1" width="2793.24" height="1118.22"/><path class="cls-2" d="M1702.88,348.73q-.12,7.8-.16,15.58c.08,16.23.06,32.46-.16,48.69q0,8.55-.14,17.1c0,2.06-.13,4.08-.31,6.06,0,.46,0,.91,0,1.37-.44,16.64-7.68,30.32-25.34,36.5-5.12,1.76-10.15,3.26-15.8,3.23q-62.92-.33-125.85-.52t-125.84-.35c-5.65,0-10.68-1.55-15.78-3.34-17.62-6.3-24.76-20-25.09-36.67,0-.46,0-.92,0-1.38q-.27-3-.28-6.05,0-8.55,0-17.1c-.11-16.23,0-32.47.18-48.7,0-5.19,0-10.38-.06-15.57a100.37,100.37,0,0,1,.51-11,42.34,42.34,0,0,1,1.11-7.74,89,89,0,0,1,3.18-12.28c8.6-12.41,20.39-18.6,35-19.69,6.82-2.35,9.06-6.71,8.79-14.26-.31-8.6,0-17.21,0-28.45,11.38,11,21.81,19.74,30.55,29.86,6,6.94,12.53,11.42,20.4,12.91l8.91,0h5.14c7.15-.1,30.28,0,54,.08s46.81.14,54,.29l5.15,0,8.91,0c7.88-1.44,14.45-5.87,20.49-12.77,8.81-10.06,19.29-18.74,30.75-29.65,0,11.24.2,19.86-.17,28.45-.32,7.55,1.88,11.92,8.68,14.33,14.58,1.19,26.32,7.45,34.84,19.92a89.66,89.66,0,0,1,3.1,12.3,44.39,44.39,0,0,1,1.06,7.75A100.54,100.54,0,0,1,1702.88,348.73Z"/><path class="cls-3" d="M1443.58,380.88c-10.63-.67-17.92-5.19-18.6-16.51-.72-11.95,6.37-18.86,17.62-19.29,11.41-.43,19.26,6.79,19.2,18.07C1461.74,373.49,1454.86,379.75,1443.58,380.88Z"/><path class="cls-3" d="M1628.12,380.34c-11.6-.71-18.87-7-18.91-18.2,0-10.55,7.57-17.5,18.06-17.61,11.18-.11,18.86,6.16,18.79,18.21C1646,373.91,1639.43,379.26,1628.12,380.34Z"/><path class="cls-3" d="M1537.15,409.63c-6.85-.31-10.91-4-11.16-10.3-.26-6.87,4.26-11.34,11.17-11.32s11.41,4.51,11.12,11.38C1548,405.66,1543.92,409.34,1537.15,409.63Z"/><rect class="cls-3" x="1411.01" y="403.29" width="64.34" height="13.9" rx="6.95" transform="translate(1.42 -4.98) rotate(0.2)"/><rect class="cls-3" x="1410.96" y="422.66" width="64.34" height="13.9" rx="6.95" transform="translate(1.49 -4.98) rotate(0.2)"/><rect class="cls-3" x="1410.91" y="441.03" width="64.34" height="13.9" rx="6.95" transform="translate(1.55 -4.98) rotate(0.2)"/><rect class="cls-3" x="1595.24" y="422.13" width="64.34" height="13.9" rx="6.95" transform="translate(1.49 -5.61) rotate(0.2)"/><rect class="cls-3" x="1595.18" y="440.5" width="64.34" height="13.9" rx="6.95" transform="translate(1.55 -5.61) rotate(0.2)"/><rect class="cls-3" x="1594.38" y="403.09" width="64.34" height="13.9" rx="6.95" transform="matrix(1, 0, 0, 1, 1.42, -5.61)"/><path class="cls-2" d="M1655.82,863.3c0,3.73,0,7.47,0,11.21a74.23,74.23,0,0,1-.37,7.92,30.63,30.63,0,0,1-.8,5.58,65.28,65.28,0,0,1-2.29,8.84c-6.19,8.93-14.68,13.38-25.17,14.16-4.91,1.7-6.52,4.84-6.33,10.27.22,6.19,0,12.39,0,20.48-8.19-7.91-15.69-14.21-22-21.49-4.32-5-9-8.22-14.69-9.29l-6.42,0h-3.7c-5.14.08-21.79,0-38.83-.06s-33.7-.09-38.84-.21h-3.7l-6.41,0c-5.68,1-10.41,4.22-14.76,9.19-6.33,7.24-13.89,13.49-22.13,21.34,0-8.09-.14-14.29.12-20.48.23-5.43-1.36-8.58-6.25-10.31-10.49-.86-19-5.37-25.08-14.34a66.4,66.4,0,0,1-2.23-8.86,31.52,31.52,0,0,1-.76-5.58,74.27,74.27,0,0,1-.31-7.92q.09-5.61.12-11.22-.09-17.52.11-35.05,0-6.15.1-12.3c0-1.48.1-2.94.23-4.37l0-1c.32-12,5.52-21.82,18.24-26.27a34,34,0,0,1,11.37-2.32q45.3.23,90.59.37t90.59.25a33.92,33.92,0,0,1,11.36,2.41c12.69,4.53,17.82,14.41,18.06,26.39,0,.33,0,.66,0,1,.12,1.43.19,2.89.2,4.37q0,6.15,0,12.3C1656,839.93,1656,851.61,1655.82,863.3Z"/><path class="cls-3" d="M1601.59,850.53c7.65.48,12.9,3.73,13.39,11.88.52,8.61-4.59,13.58-12.69,13.89s-13.86-4.89-13.82-13C1588.51,855.85,1593.47,851.34,1601.59,850.53Z"/><path class="cls-3" d="M1468.74,850.92c8.35.51,13.59,5,13.61,13.1,0,7.6-5.44,12.6-13,12.67-8,.09-13.58-4.43-13.53-13.1C1455.88,855.54,1460.61,851.7,1468.74,850.92Z"/><path class="cls-3" d="M1534.23,829.83c4.93.23,7.86,2.9,8,7.42.19,5-3.06,8.16-8,8.15s-8.21-3.25-8-8.19C1526.42,832.69,1529.36,830,1534.23,829.83Z"/><rect class="cls-3" x="1578.71" y="823.51" width="46.32" height="10" rx="3.35" transform="translate(3200.87 1662.55) rotate(-179.8)"/><rect class="cls-3" x="1578.75" y="810.45" width="46.32" height="10" rx="3.35" transform="translate(3200.99 1636.43) rotate(-179.8)"/><rect class="cls-3" x="1578.79" y="797.38" width="46.32" height="10" rx="3.35" transform="translate(3201.12 1610.3) rotate(-179.8)"/><rect class="cls-3" x="1446.06" y="823.9" width="46.32" height="10" rx="3.35" transform="translate(2935.57 1662.87) rotate(-179.8)"/><rect class="cls-3" x="1446.1" y="810.83" width="46.32" height="10" rx="3.35" transform="translate(2935.69 1636.74) rotate(-179.8)"/><rect class="cls-3" x="1446.14" y="797.77" width="46.32" height="10" rx="3.35" transform="translate(2935.81 1610.61) rotate(-179.8)"/><path class="cls-3" d="M2428.55,523.71H642.34a87.45,87.45,0,0,0-87.46,87.46v42.9a87.45,87.45,0,0,0,87.46,87.46H2428.55A87.46,87.46,0,0,0,2516,654.07v-42.9A87.46,87.46,0,0,0,2428.55,523.71ZM2508,654.07a79.55,79.55,0,0,1-79.46,79.46H642.34a79.54,79.54,0,0,1-79.46-79.46v-42.9a79.54,79.54,0,0,1,79.46-79.46H2428.55A79.55,79.55,0,0,1,2508,611.17Z"/><path class="cls-2" d="M1934.26,523.71H1086.41q-.72,4-1.35,8h850.55Q1935,527.7,1934.26,523.71Zm0,0H1111.53q-.72,4-1.35,8h825.43Q1935,527.7,1934.26,523.71Zm0,0H1111.53q-.72,4-1.35,8h825.43Q1935,527.7,1934.26,523.71Zm494.29-8H642.34a95.56,95.56,0,0,0-95.46,95.46v42.9a95.56,95.56,0,0,0,95.46,95.46H2428.55A95.57,95.57,0,0,0,2524,654.07v-42.9A95.57,95.57,0,0,0,2428.55,515.71ZM2508,654.07a79.55,79.55,0,0,1-79.46,79.46H642.34a79.54,79.54,0,0,1-79.46-79.46v-42.9a79.54,79.54,0,0,1,79.46-79.46H2428.55A79.55,79.55,0,0,1,2508,611.17ZM1934.26,523.71H1111.53q-.72,4-1.35,8h825.43Q1935,527.7,1934.26,523.71Zm0,0H1086.41q-.72,4-1.35,8h850.55Q1935,527.7,1934.26,523.71Zm0,0H1086.41q-.72,4-1.35,8h850.55Q1935,527.7,1934.26,523.71Z"/><path class="cls-1" d="M1056.68,531.71H642.34a79.54,79.54,0,0,0-79.46,79.46v42.9a79.54,79.54,0,0,0,79.46,79.46h429.21c-1.36-4.46-2.66,4.5-3.88,0h29.18c1.32,4.51,2.71-4.45,4.17,0H2428.55A79.55,79.55,0,0,0,2508,654.07v-42.9a79.55,79.55,0,0,0-79.46-79.46H1056.68Z"/><path class="cls-3" d="M804.71,581.8H761.19V700.14H731.93V581.8H689V558.09H804.71Z"/><path class="cls-3" d="M889.87,670.87H838.56l-9.76,29.27H797.68l52.88-142h27.12l53.17,142H899.73Zm-43.41-23.71H882L864.12,594Z"/><path class="cls-3" d="M973.38,676.63h62.15v23.51H944.12v-142h29.26Z"/><path class="cls-3" d="M1134.35,670.87H1083l-9.76,29.27h-31.12l52.88-142h27.12l53.17,142h-31.12Zm-43.41-23.71h35.51L1108.6,594Z"/><path class="cls-3" d="M1233.08,643.16l-15.22,16.39v40.59H1188.6v-142h29.26v64.39l12.88-17.66,36.19-46.73h36l-50.43,63.12,51.9,78.93h-34.83Z"/><path class="cls-3" d="M1422.93,558.09v93.56q0,23.33-14.58,36.88t-39.86,13.56q-24.87,0-39.51-13.17t-14.92-36.2V558.09h29.26v93.76q0,13.95,6.69,20.34t18.48,6.39q24.69,0,25.08-26V558.09Z"/><path class="cls-3" d="M1553.85,581.8h-43.51V700.14h-29.27V581.8h-42.92V558.09h115.7Z"/><path class="cls-3" d="M1686,700.14h-29.26l-57-93.46v93.46h-29.26v-142h29.26l57.07,93.66V558.09H1686Z"/><path class="cls-3" d="M1793.55,670.87h-51.31l-9.76,29.27h-31.12l52.88-142h27.12l53.17,142h-31.12Zm-43.41-23.71h35.51L1767.8,594Z"/><path class="cls-3" d="M1963.3,700.14H1934l-57-93.46v93.46H1847.8v-142h29.26l57.07,93.66V558.09h29.17Z"/><path class="cls-3" d="M2101.25,682.19q-7.9,9.46-22.34,14.68a93.56,93.56,0,0,1-32,5.22q-18.44,0-32.34-8.05a53.68,53.68,0,0,1-21.46-23.36q-7.56-15.31-7.76-36V625q0-21.27,7.17-36.83t20.68-23.8q13.52-8.25,31.66-8.25,25.28,0,39.51,12.05t16.88,35.07h-28.49q-2-12.19-8.63-17.85t-18.39-5.66q-14.92,0-22.73,11.22t-7.9,33.37v9.07q0,22.33,8.48,33.75t24.88,11.42q16.49,0,23.51-7V647.07h-26.63V625.51h55.9Z"/><path class="cls-3" d="M2205.15,670.87h-51.32l-9.75,29.27H2113l52.87-142H2193l53.17,142H2215Zm-43.41-23.71h35.51L2179.39,594Z"/><path class="cls-3" d="M2374.9,700.14h-29.27l-57-93.46v93.46h-29.27v-142h29.27l57.07,93.66V558.09h29.17Z"/><path class="cls-2" d="M1989.1,531.71h-28.37q-.63-4-1.35-8t-1.5-8C1918.73,318.28,1744.2,169,1535.45,169S1152.17,318.28,1113,515.71q-.79,4-1.5,8t-1.35,8H1081.8q.59-4,1.25-8t1.41-8a458.7,458.7,0,0,1,902,0q.75,4,1.41,8T1989.1,531.71Z"/><path class="cls-2" d="M1974.23,733.53c-.82,2.68-1.66,5.34-2.53,8s-1.76,5.34-2.68,8q-5,14.44-11,28.6a458.88,458.88,0,0,1-845.17,0q-6-14.16-11-28.6c-.92-2.66-1.81-5.32-2.68-8s-1.71-5.32-2.53-8h29.47c.88,2.68,1.78,5.35,2.72,8s1.89,5.35,2.88,8c61,163.75,219,280.71,403.71,280.71s342.7-117,403.71-280.71q1.48-4,2.88-8c.94-2.65,1.84-5.32,2.72-8Z"/></g></g></svg>